<mxfile host="Electron" modified="2024-02-12T01:17:43.596Z" agent="Mozilla/5.0 (Windows NT 10.0; Win64; x64) AppleWebKit/537.36 (KHTML, like Gecko) draw.io/22.1.16 Chrome/120.0.6099.109 Electron/28.1.0 Safari/537.36" etag="fLN1JBfyb7vlvjlIEKBN" version="22.1.16" type="device">
  <diagram name="Page-1" id="ndUFC0uiClozn0y08b7a">
    <mxGraphModel dx="1084" dy="1184" grid="1" gridSize="10" guides="1" tooltips="1" connect="1" arrows="1" fold="1" page="1" pageScale="1" pageWidth="850" pageHeight="1100" math="0" shadow="0">
      <root>
        <mxCell id="0" />
        <mxCell id="1" parent="0" />
        <mxCell id="eIKcoQl4cshyov_YFIaD-3" value="sa-east-1 - PRIMARY region" style="points=[[0,0],[0.25,0],[0.5,0],[0.75,0],[1,0],[1,0.25],[1,0.5],[1,0.75],[1,1],[0.75,1],[0.5,1],[0.25,1],[0,1],[0,0.75],[0,0.5],[0,0.25]];outlineConnect=0;gradientColor=none;html=1;whiteSpace=wrap;fontSize=12;fontStyle=0;container=1;pointerEvents=0;collapsible=0;recursiveResize=0;shape=mxgraph.aws4.group;grIcon=mxgraph.aws4.group_region;strokeColor=#00A4A6;fillColor=none;verticalAlign=top;align=left;spacingLeft=30;fontColor=#147EBA;dashed=1;" vertex="1" parent="1">
          <mxGeometry x="275" y="110" width="300" height="180" as="geometry" />
        </mxCell>
        <mxCell id="eIKcoQl4cshyov_YFIaD-2" value="" style="sketch=0;outlineConnect=0;fontColor=#232F3E;gradientColor=none;fillColor=#C925D1;strokeColor=none;dashed=0;verticalLabelPosition=bottom;verticalAlign=top;align=center;html=1;fontSize=12;fontStyle=0;aspect=fixed;pointerEvents=1;shape=mxgraph.aws4.aurora_instance;" vertex="1" parent="eIKcoQl4cshyov_YFIaD-3">
          <mxGeometry x="193" y="50" width="78" height="78" as="geometry" />
        </mxCell>
        <mxCell id="eIKcoQl4cshyov_YFIaD-4" style="edgeStyle=orthogonalEdgeStyle;rounded=0;orthogonalLoop=1;jettySize=auto;html=1;startArrow=classic;startFill=1;" edge="1" parent="eIKcoQl4cshyov_YFIaD-3" source="eIKcoQl4cshyov_YFIaD-1" target="eIKcoQl4cshyov_YFIaD-2">
          <mxGeometry relative="1" as="geometry" />
        </mxCell>
        <mxCell id="eIKcoQl4cshyov_YFIaD-1" value="" style="sketch=0;points=[[0,0,0],[0.25,0,0],[0.5,0,0],[0.75,0,0],[1,0,0],[0,1,0],[0.25,1,0],[0.5,1,0],[0.75,1,0],[1,1,0],[0,0.25,0],[0,0.5,0],[0,0.75,0],[1,0.25,0],[1,0.5,0],[1,0.75,0]];outlineConnect=0;fontColor=#232F3E;fillColor=#ED7100;strokeColor=#ffffff;dashed=0;verticalLabelPosition=bottom;verticalAlign=top;align=center;html=1;fontSize=12;fontStyle=0;aspect=fixed;shape=mxgraph.aws4.resourceIcon;resIcon=mxgraph.aws4.ec2;" vertex="1" parent="eIKcoQl4cshyov_YFIaD-3">
          <mxGeometry x="30" y="50" width="78" height="78" as="geometry" />
        </mxCell>
        <mxCell id="eIKcoQl4cshyov_YFIaD-5" value="Applications read/ write" style="text;html=1;align=center;verticalAlign=middle;resizable=0;points=[];autosize=1;strokeColor=none;fillColor=none;fontSize=17;fontStyle=1" vertex="1" parent="eIKcoQl4cshyov_YFIaD-3">
          <mxGeometry x="40" y="140" width="220" height="30" as="geometry" />
        </mxCell>
        <mxCell id="eIKcoQl4cshyov_YFIaD-6" value="us-east-1&amp;nbsp;- SECONDARY region" style="points=[[0,0],[0.25,0],[0.5,0],[0.75,0],[1,0],[1,0.25],[1,0.5],[1,0.75],[1,1],[0.75,1],[0.5,1],[0.25,1],[0,1],[0,0.75],[0,0.5],[0,0.25]];outlineConnect=0;gradientColor=none;html=1;whiteSpace=wrap;fontSize=12;fontStyle=0;container=1;pointerEvents=0;collapsible=0;recursiveResize=0;shape=mxgraph.aws4.group;grIcon=mxgraph.aws4.group_region;strokeColor=#00A4A6;fillColor=none;verticalAlign=top;align=left;spacingLeft=30;fontColor=#147EBA;dashed=1;" vertex="1" parent="1">
          <mxGeometry x="275" y="360" width="300" height="180" as="geometry" />
        </mxCell>
        <mxCell id="eIKcoQl4cshyov_YFIaD-7" value="" style="sketch=0;outlineConnect=0;fontColor=#232F3E;gradientColor=none;fillColor=#C925D1;strokeColor=none;dashed=0;verticalLabelPosition=bottom;verticalAlign=top;align=center;html=1;fontSize=12;fontStyle=0;aspect=fixed;pointerEvents=1;shape=mxgraph.aws4.aurora_instance;" vertex="1" parent="eIKcoQl4cshyov_YFIaD-6">
          <mxGeometry x="193" y="50" width="78" height="78" as="geometry" />
        </mxCell>
        <mxCell id="eIKcoQl4cshyov_YFIaD-8" style="edgeStyle=orthogonalEdgeStyle;rounded=0;orthogonalLoop=1;jettySize=auto;html=1;startArrow=classic;startFill=1;" edge="1" parent="eIKcoQl4cshyov_YFIaD-6" source="eIKcoQl4cshyov_YFIaD-9" target="eIKcoQl4cshyov_YFIaD-7">
          <mxGeometry relative="1" as="geometry" />
        </mxCell>
        <mxCell id="eIKcoQl4cshyov_YFIaD-9" value="" style="sketch=0;points=[[0,0,0],[0.25,0,0],[0.5,0,0],[0.75,0,0],[1,0,0],[0,1,0],[0.25,1,0],[0.5,1,0],[0.75,1,0],[1,1,0],[0,0.25,0],[0,0.5,0],[0,0.75,0],[1,0.25,0],[1,0.5,0],[1,0.75,0]];outlineConnect=0;fontColor=#232F3E;fillColor=#ED7100;strokeColor=#ffffff;dashed=0;verticalLabelPosition=bottom;verticalAlign=top;align=center;html=1;fontSize=12;fontStyle=0;aspect=fixed;shape=mxgraph.aws4.resourceIcon;resIcon=mxgraph.aws4.ec2;" vertex="1" parent="eIKcoQl4cshyov_YFIaD-6">
          <mxGeometry x="30" y="50" width="78" height="78" as="geometry" />
        </mxCell>
        <mxCell id="eIKcoQl4cshyov_YFIaD-10" value="Applications read only" style="text;html=1;align=center;verticalAlign=middle;resizable=0;points=[];autosize=1;strokeColor=none;fillColor=none;fontSize=17;fontStyle=1" vertex="1" parent="eIKcoQl4cshyov_YFIaD-6">
          <mxGeometry x="45" y="140" width="210" height="30" as="geometry" />
        </mxCell>
        <mxCell id="eIKcoQl4cshyov_YFIaD-11" value="replication" style="edgeStyle=orthogonalEdgeStyle;rounded=0;orthogonalLoop=1;jettySize=auto;html=1;" edge="1" parent="1" source="eIKcoQl4cshyov_YFIaD-2" target="eIKcoQl4cshyov_YFIaD-7">
          <mxGeometry relative="1" as="geometry">
            <Array as="points">
              <mxPoint x="630" y="199" />
              <mxPoint x="630" y="449" />
            </Array>
          </mxGeometry>
        </mxCell>
      </root>
    </mxGraphModel>
  </diagram>
</mxfile>
